<?xml version="1.0" encoding="UTF-8" standalone="no"?>
<!DOCTYPE svg PUBLIC "-//W3C//DTD SVG 1.1//EN" "http://www.w3.org/Graphics/SVG/1.1/DTD/svg11.dtd">
<svg width="100%" height="100%" viewBox="0 0 512 256" version="1.1" xmlns="http://www.w3.org/2000/svg" xml:space="preserve" style="fill-rule:evenodd;clip-rule:evenodd;stroke-linejoin:round;stroke-miterlimit:2;">
    <path d="M52.082,62.046c2.916,0.556 5.389,2.195 7.42,4.917c2.03,2.722 3.045,5.805 3.045,9.25c0,2.944 -0.715,5.597 -2.147,7.958c-1.432,2.361 -3.502,4.222 -6.209,5.583c-2.707,1.362 -5.857,2.042 -9.45,2.042l-21.711,0l0,-57.917l20.696,0c3.697,0 6.873,0.667 9.528,2c2.655,1.334 4.66,3.125 6.013,5.375c1.354,2.25 2.031,4.764 2.031,7.542c-0,3.333 -0.833,6.111 -2.499,8.333c-1.666,2.223 -3.905,3.862 -6.717,4.917Zm-20.149,-3.833l11.012,-0c2.916,-0 5.194,-0.709 6.834,-2.125c1.64,-1.417 2.46,-3.459 2.46,-6.125c-0,-2.611 -0.82,-4.653 -2.46,-6.125c-1.64,-1.472 -3.918,-2.209 -6.834,-2.209l-11.012,0l0,16.584Zm12.027,25.833c3.02,0 5.389,-0.778 7.107,-2.333c1.718,-1.556 2.577,-3.722 2.577,-6.5c0,-2.834 -0.911,-5.084 -2.733,-6.75c-1.822,-1.667 -4.243,-2.5 -7.263,-2.5l-11.715,-0l0,18.083l12.027,0Z" style="fill-rule:nonzero;"/>
    <path d="M111.671,67.713c-0,1.722 -0.104,3.278 -0.313,4.666l-32.879,0c0.261,3.667 1.536,6.612 3.827,8.834c2.291,2.222 5.102,3.333 8.435,3.333c4.79,0 8.174,-2.139 10.152,-6.417l9.606,0c-1.301,4.223 -3.657,7.681 -7.068,10.375c-3.41,2.695 -7.64,4.042 -12.69,4.042c-4.114,0 -7.797,-0.986 -11.051,-2.958c-3.254,-1.972 -5.805,-4.75 -7.654,-8.334c-1.848,-3.583 -2.772,-7.736 -2.772,-12.458c-0,-4.722 0.898,-8.875 2.694,-12.458c1.796,-3.584 4.322,-6.347 7.576,-8.292c3.254,-1.944 6.989,-2.917 11.207,-2.917c4.061,0 7.679,0.945 10.855,2.834c3.176,1.889 5.649,4.541 7.419,7.958c1.771,3.417 2.656,7.347 2.656,11.792Zm-9.294,-3c-0.052,-3.5 -1.223,-6.306 -3.514,-8.417c-2.291,-2.111 -5.129,-3.167 -8.513,-3.167c-3.072,0 -5.701,1.042 -7.888,3.125c-2.186,2.084 -3.488,4.903 -3.905,8.459l23.82,-0Z" style="fill-rule:nonzero;"/>
    <path d="M159.154,45.879l-26.397,67.5l-9.216,0l8.747,-22.333l-16.947,-45.167l9.919,0l12.105,35l12.573,-35l9.216,0Z" style="fill-rule:nonzero;"/>
    <path d="M184.535,92.546c-4.061,0 -7.731,-0.986 -11.011,-2.958c-3.28,-1.972 -5.858,-4.75 -7.732,-8.334c-1.874,-3.583 -2.811,-7.736 -2.811,-12.458c-0,-4.667 0.963,-8.805 2.889,-12.417c1.927,-3.611 4.556,-6.388 7.888,-8.333c3.332,-1.944 7.055,-2.917 11.168,-2.917c4.113,0 7.836,0.973 11.168,2.917c3.332,1.945 5.961,4.722 7.888,8.333c1.926,3.612 2.889,7.75 2.889,12.417c0,4.667 -0.989,8.806 -2.967,12.417c-1.979,3.611 -4.673,6.403 -8.084,8.375c-3.41,1.972 -7.171,2.958 -11.285,2.958Zm0,-8.25c2.291,0 4.439,-0.583 6.443,-1.75c2.005,-1.167 3.632,-2.917 4.882,-5.25c1.249,-2.333 1.874,-5.167 1.874,-8.5c-0,-3.333 -0.599,-6.153 -1.796,-8.458c-1.198,-2.306 -2.786,-4.042 -4.764,-5.209c-1.979,-1.166 -4.113,-1.75 -6.404,-1.75c-2.291,0 -4.413,0.584 -6.365,1.75c-1.953,1.167 -3.502,2.903 -4.647,5.209c-1.145,2.305 -1.718,5.125 -1.718,8.458c-0,4.945 1.184,8.764 3.553,11.458c2.369,2.695 5.35,4.042 8.942,4.042Z" style="fill-rule:nonzero;"/>
    <path d="M237.407,45.129c3.384,0 6.417,0.75 9.099,2.25c2.681,1.5 4.777,3.723 6.286,6.667c1.51,2.945 2.265,6.5 2.265,10.667l0,27.083l-8.825,0l0,-25.667c0,-4.111 -0.963,-7.263 -2.889,-9.458c-1.927,-2.194 -4.556,-3.292 -7.888,-3.292c-3.332,0 -5.975,1.098 -7.927,3.292c-1.952,2.195 -2.929,5.347 -2.929,9.458l0,25.667l-8.903,0l0,-45.917l8.903,0l0,5.25c1.458,-1.888 3.319,-3.361 5.584,-4.416c2.265,-1.056 4.673,-1.584 7.224,-1.584Z" style="fill-rule:nonzero;"/>
    <path d="M263.414,68.629c-0,-4.611 0.898,-8.694 2.694,-12.25c1.796,-3.555 4.243,-6.319 7.341,-8.291c3.098,-1.972 6.547,-2.959 10.348,-2.959c2.812,0 5.584,0.653 8.317,1.959c2.734,1.305 4.907,3.041 6.522,5.208l-0,-22.167l8.981,0l-0,61.667l-8.981,0l-0,-6.917c-1.458,2.223 -3.476,4.056 -6.053,5.5c-2.577,1.445 -5.532,2.167 -8.864,2.167c-3.749,0 -7.172,-1.014 -10.27,-3.042c-3.098,-2.027 -5.545,-4.861 -7.341,-8.5c-1.796,-3.638 -2.694,-7.763 -2.694,-12.375Zm35.222,0.167c-0,-3.167 -0.612,-5.917 -1.836,-8.25c-1.223,-2.333 -2.824,-4.111 -4.803,-5.333c-1.978,-1.222 -4.113,-1.834 -6.404,-1.834c-2.291,0 -4.425,0.598 -6.404,1.792c-1.978,1.195 -3.579,2.945 -4.803,5.25c-1.223,2.306 -1.835,5.042 -1.835,8.208c0,3.167 0.612,5.945 1.835,8.334c1.224,2.389 2.838,4.208 4.842,5.458c2.005,1.25 4.126,1.875 6.365,1.875c2.291,0 4.426,-0.611 6.404,-1.833c1.979,-1.222 3.58,-3.014 4.803,-5.375c1.224,-2.361 1.836,-5.125 1.836,-8.292Z" style="fill-rule:nonzero;"/>
    <path d="M96.6,186.5l0,25.417c0,1.722 0.403,2.958 1.209,3.708c0.805,0.75 2.18,1.125 4.125,1.125l5.833,0l-0,7.917l-7.5,-0c-4.278,-0 -7.556,-1 -9.833,-3c-2.278,-2 -3.417,-5.25 -3.417,-9.75l-0,-25.417l-5.417,0l0,-7.75l5.417,0l-0,-11.417l9.583,0l0,11.417l11.167,0l-0,7.75l-11.167,0Z" style="fill-rule:nonzero;"/>
    <path d="M140.267,178c3.5,0 6.625,0.75 9.375,2.25c2.75,1.5 4.917,3.722 6.5,6.667c1.583,2.944 2.375,6.5 2.375,10.666l-0,27.084l-9.417,-0l0,-25.667c0,-4.111 -1.027,-7.264 -3.083,-9.458c-2.056,-2.195 -4.861,-3.292 -8.417,-3.292c-3.555,0 -6.375,1.097 -8.458,3.292c-2.083,2.194 -3.125,5.347 -3.125,9.458l-0,25.667l-9.5,-0l-0,-61.667l9.5,0l-0,21.083c1.611,-1.944 3.653,-3.444 6.125,-4.5c2.472,-1.055 5.181,-1.583 8.125,-1.583Z" style="fill-rule:nonzero;"/>
    <path d="M212.684,200.583c-0,1.723 -0.111,3.278 -0.334,4.667l-35.083,0c0.278,3.667 1.639,6.611 4.083,8.833c2.445,2.223 5.445,3.334 9,3.334c5.111,-0 8.723,-2.139 10.834,-6.417l10.25,0c-1.389,4.222 -3.903,7.681 -7.542,10.375c-3.639,2.694 -8.153,4.042 -13.542,4.042c-4.389,-0 -8.319,-0.986 -11.791,-2.959c-3.473,-1.972 -6.195,-4.75 -8.167,-8.333c-1.972,-3.583 -2.958,-7.736 -2.958,-12.458c-0,-4.723 0.958,-8.875 2.875,-12.459c1.916,-3.583 4.611,-6.347 8.083,-8.291c3.472,-1.945 7.458,-2.917 11.958,-2.917c4.334,0 8.195,0.944 11.584,2.833c3.389,1.889 6.027,4.542 7.916,7.959c1.889,3.416 2.834,7.347 2.834,11.791Zm-9.917,-3c-0.056,-3.5 -1.306,-6.305 -3.75,-8.416c-2.444,-2.111 -5.472,-3.167 -9.083,-3.167c-3.278,0 -6.084,1.042 -8.417,3.125c-2.333,2.083 -3.722,4.903 -4.167,8.458l25.417,0Z" style="fill-rule:nonzero;"/>
    <path d="M276.5,225.25c-3.889,0 -7.389,-0.681 -10.5,-2.042c-3.111,-1.361 -5.556,-3.291 -7.333,-5.791c-1.778,-2.5 -2.667,-5.417 -2.667,-8.75l10.167,-0c0.222,2.5 1.208,4.555 2.958,6.166c1.75,1.611 4.208,2.417 7.375,2.417c3.278,0 5.833,-0.792 7.667,-2.375c1.833,-1.583 2.75,-3.625 2.75,-6.125c-0,-1.944 -0.57,-3.528 -1.709,-4.75c-1.139,-1.222 -2.555,-2.167 -4.25,-2.833c-1.694,-0.667 -4.041,-1.389 -7.041,-2.167c-3.778,-1 -6.848,-2.014 -9.209,-3.042c-2.361,-1.027 -4.375,-2.625 -6.041,-4.791c-1.667,-2.167 -2.5,-5.056 -2.5,-8.667c-0,-3.333 0.833,-6.25 2.5,-8.75c1.666,-2.5 4,-4.417 7,-5.75c3,-1.333 6.472,-2 10.416,-2c5.611,0 10.209,1.403 13.792,4.208c3.583,2.806 5.569,6.653 5.958,11.542l-10.5,0c-0.166,-2.111 -1.166,-3.917 -3,-5.417c-1.833,-1.5 -4.25,-2.25 -7.25,-2.25c-2.722,0 -4.944,0.695 -6.666,2.084c-1.723,1.389 -2.584,3.389 -2.584,6c0,1.777 0.542,3.236 1.625,4.375c1.084,1.139 2.459,2.041 4.125,2.708c1.667,0.667 3.945,1.389 6.834,2.167c3.833,1.055 6.958,2.111 9.375,3.166c2.416,1.056 4.472,2.681 6.166,4.875c1.695,2.195 2.542,5.125 2.542,8.792c0,2.944 -0.792,5.722 -2.375,8.333c-1.583,2.611 -3.889,4.709 -6.917,6.292c-3.027,1.583 -6.597,2.375 -10.708,2.375Z" style="fill-rule:nonzero;"/>
    <path d="M318.833,186.5l0,25.417c0,1.722 0.403,2.958 1.209,3.708c0.805,0.75 2.18,1.125 4.125,1.125l5.833,0l-0,7.917l-7.5,-0c-4.278,-0 -7.556,-1 -9.833,-3c-2.278,-2 -3.417,-5.25 -3.417,-9.75l-0,-25.417l-5.417,0l0,-7.75l5.417,0l-0,-11.417l9.583,0l0,11.417l11.167,0l-0,7.75l-11.167,0Z" style="fill-rule:nonzero;"/>
    <path d="M335.583,201.5c0,-4.611 0.959,-8.694 2.875,-12.25c1.917,-3.556 4.528,-6.319 7.834,-8.292c3.305,-1.972 6.958,-2.958 10.958,-2.958c3.611,0 6.764,0.708 9.458,2.125c2.695,1.417 4.848,3.181 6.459,5.292l-0,-6.667l9.583,0l-0,45.917l-9.583,-0l-0,-6.834c-1.611,2.167 -3.806,3.973 -6.584,5.417c-2.777,1.444 -5.944,2.167 -9.5,2.167c-3.944,-0 -7.555,-1.014 -10.833,-3.042c-3.278,-2.028 -5.875,-4.861 -7.792,-8.5c-1.916,-3.639 -2.875,-7.764 -2.875,-12.375Zm37.584,0.167c-0,-3.167 -0.653,-5.917 -1.959,-8.25c-1.305,-2.334 -3.014,-4.111 -5.125,-5.334c-2.111,-1.222 -4.389,-1.833 -6.833,-1.833c-2.444,0 -4.722,0.597 -6.833,1.792c-2.111,1.194 -3.82,2.944 -5.125,5.25c-1.306,2.305 -1.959,5.041 -1.959,8.208c0,3.167 0.653,5.944 1.959,8.333c1.305,2.389 3.027,4.209 5.166,5.459c2.139,1.25 4.403,1.875 6.792,1.875c2.444,-0 4.722,-0.611 6.833,-1.834c2.111,-1.222 3.82,-3.014 5.125,-5.375c1.306,-2.361 1.959,-5.125 1.959,-8.291Z" style="fill-rule:nonzero;"/>
    <path d="M404.75,185.417c1.389,-2.334 3.236,-4.153 5.542,-5.459c2.305,-1.305 5.041,-1.958 8.208,-1.958l0,9.833l-2.417,0c-3.722,0 -6.541,0.945 -8.458,2.834c-1.917,1.889 -2.875,5.166 -2.875,9.833l0,24.167l-9.5,-0l0,-45.917l9.5,0l0,6.667Z" style="fill-rule:nonzero;"/>
    <path d="M443.917,225.417c-3.611,-0 -6.848,-0.653 -9.709,-1.959c-2.861,-1.305 -5.125,-3.083 -6.791,-5.333c-1.667,-2.25 -2.556,-4.764 -2.667,-7.542l9.833,0c0.167,1.945 1.098,3.57 2.792,4.875c1.694,1.306 3.819,1.959 6.375,1.959c2.667,-0 4.736,-0.514 6.208,-1.542c1.473,-1.028 2.209,-2.347 2.209,-3.958c-0,-1.723 -0.82,-3 -2.459,-3.834c-1.639,-0.833 -4.236,-1.75 -7.791,-2.75c-3.445,-0.944 -6.25,-1.861 -8.417,-2.75c-2.167,-0.889 -4.042,-2.25 -5.625,-4.083c-1.583,-1.833 -2.375,-4.25 -2.375,-7.25c-0,-2.444 0.722,-4.681 2.167,-6.708c1.444,-2.028 3.514,-3.625 6.208,-4.792c2.694,-1.167 5.792,-1.75 9.292,-1.75c5.222,0 9.43,1.319 12.625,3.958c3.194,2.639 4.902,6.236 5.125,10.792l-9.5,0c-0.167,-2.056 -1,-3.694 -2.5,-4.917c-1.5,-1.222 -3.528,-1.833 -6.084,-1.833c-2.5,0 -4.416,0.472 -5.75,1.417c-1.333,0.944 -2,2.194 -2,3.75c0,1.222 0.445,2.25 1.334,3.083c0.889,0.833 1.972,1.486 3.25,1.958c1.277,0.473 3.166,1.07 5.666,1.792c3.334,0.889 6.07,1.792 8.209,2.708c2.139,0.917 3.986,2.264 5.541,4.042c1.556,1.778 2.361,4.139 2.417,7.083c-0,2.611 -0.722,4.945 -2.167,7c-1.444,2.056 -3.486,3.667 -6.125,4.834c-2.639,1.166 -5.736,1.75 -9.291,1.75Z" style="fill-rule:nonzero;"/>
    <path d="M483.667,166.75l-1.084,40.417l-7.916,-0l-1.084,-40.417l10.084,0Zm-4.75,58.5c-1.723,0 -3.167,-0.583 -4.334,-1.75c-1.166,-1.167 -1.75,-2.611 -1.75,-4.333c0,-1.723 0.584,-3.167 1.75,-4.334c1.167,-1.166 2.611,-1.75 4.334,-1.75c1.666,0 3.083,0.584 4.25,1.75c1.166,1.167 1.75,2.611 1.75,4.334c-0,1.722 -0.584,3.166 -1.75,4.333c-1.167,1.167 -2.584,1.75 -4.25,1.75Z" style="fill-rule:nonzero;"/>
</svg>
